<svg width="425" height="425" viewBox="0 0 425 425" fill="none" xmlns="http://www.w3.org/2000/svg">
<g clip-path="url(#clip0_0_1)">
<rect x="133" y="97" width="161" height="14" fill="#CE6767"/>
<rect x="143" y="129" width="142" height="14" fill="#40A5DD"/>
<rect x="153" y="162" width="120" height="14" fill="#CE6767"/>
<rect x="153" y="246" width="120" height="14" fill="#40A5DD"/>
<rect x="142" y="279" width="142" height="14" fill="#CE6767"/>
<rect x="133" y="312" width="161" height="14" fill="#40A5DD"/>
<path d="M324.204 311.204C327.442 314.442 327.455 319.708 324.06 322.78C293.649 350.295 254.023 365.633 212.817 365.633C171.61 365.633 131.984 350.295 101.573 322.78C98.1778 319.708 98.1913 314.442 101.429 311.204V311.204C104.667 307.966 109.902 307.986 113.314 311.039C140.602 335.453 176.008 349.051 212.817 349.051C249.625 349.051 285.031 335.453 312.319 311.039C315.731 307.986 320.966 307.966 324.204 311.204V311.204Z" fill="#544B5F"/>
<path d="M324.204 112.429C327.442 109.191 327.455 103.925 324.06 100.853C293.649 73.3381 254.023 58 212.817 58C171.61 58 131.984 73.3381 101.573 100.853C98.1778 103.925 98.1913 109.191 101.429 112.429V112.429C104.667 115.667 109.902 115.647 113.314 112.594C140.602 88.1798 176.008 74.5817 212.817 74.5817C249.625 74.5817 285.031 88.1798 312.319 112.594C315.731 115.647 320.966 115.667 324.204 112.429V112.429Z" fill="#544B5F"/>
<path d="M136.117 81.5C131.082 81.5 126.981 85.5836 127.177 90.6151C127.784 106.21 129.945 121.556 133.584 136.032C137.931 153.321 144.303 169.03 152.335 182.263C160.368 195.495 169.903 205.992 180.398 213.153C190.893 220.314 202.141 224 213.5 224C224.859 224 236.107 220.314 246.602 213.153C257.097 205.992 266.632 195.495 274.665 182.263C282.697 169.03 289.069 153.321 293.416 136.032C297.055 121.556 299.216 106.21 299.823 90.6151C300.019 85.5836 295.918 81.5 290.883 81.5V81.5C285.847 81.5 281.789 85.5846 281.541 90.6138C280.966 102.26 279.292 113.707 276.569 124.537C273.138 138.181 268.11 150.579 261.771 161.021C255.432 171.464 247.906 179.748 239.624 185.4C231.342 191.051 222.465 193.96 213.5 193.96C204.535 193.96 195.658 191.051 187.376 185.4C179.094 179.748 171.568 171.464 165.229 161.021C158.89 150.579 153.862 138.181 150.431 124.537C147.708 113.707 146.034 102.26 145.459 90.6138C145.211 85.5846 141.153 81.5 136.117 81.5V81.5Z" fill="#544B5F"/>
<path d="M136.117 342.5C131.082 342.5 126.981 338.416 127.177 333.385C127.784 317.79 129.945 302.444 133.584 287.968C137.931 270.679 144.303 254.97 152.335 241.737C160.368 228.505 169.903 218.008 180.398 210.847C190.893 203.686 202.141 200 213.5 200C224.859 200 236.107 203.686 246.602 210.847C257.097 218.008 266.632 228.505 274.665 241.737C282.697 254.97 289.069 270.679 293.416 287.968C297.055 302.444 299.216 317.79 299.823 333.385C300.019 338.416 295.918 342.5 290.883 342.5V342.5C285.847 342.5 281.789 338.415 281.541 333.386C280.966 321.74 279.292 310.293 276.569 299.463C273.138 285.819 268.11 273.421 261.771 262.979C255.432 252.536 247.906 244.252 239.624 238.6C231.342 232.949 222.465 230.04 213.5 230.04C204.535 230.04 195.658 232.949 187.376 238.6C179.094 244.252 171.568 252.536 165.229 262.979C158.89 273.421 153.862 285.819 150.431 299.463C147.708 310.293 146.034 321.74 145.459 333.386C145.211 338.415 141.153 342.5 136.117 342.5V342.5Z" fill="#544B5F"/>
<rect x="204" y="26" width="11" height="36" fill="#544B5F"/>
<circle cx="209.5" cy="26.5" r="13.5" fill="#40A5DD"/>
<rect x="130.458" y="45.3141" width="11" height="36" transform="rotate(-23.0908 130.458 45.3141)" fill="#544B5F"/>
<circle cx="135.713" cy="43.713" r="13.5" transform="rotate(-23.0908 135.713 43.713)" fill="#CE6767"/>
<rect width="11" height="36" transform="matrix(-0.919885 -0.392189 -0.392189 0.919885 290.597 45.4101)" fill="#544B5F"/>
<circle cx="13.5" cy="13.5" r="13.5" transform="matrix(-0.919885 -0.392189 -0.392189 0.919885 303.054 36.5891)" fill="#CE6767"/>
<rect width="11" height="36" transform="matrix(1 0 0 -1 204 393.663)" fill="#544B5F"/>
<circle cx="13.5" cy="13.5" r="13.5" transform="matrix(1 0 0 -1 196 406.663)" fill="#CE6767"/>
<rect width="11" height="36" transform="matrix(0.919885 0.392189 0.392189 -0.919885 130.458 374.253)" fill="#544B5F"/>
<circle cx="13.5" cy="13.5" r="13.5" transform="matrix(0.919885 0.392189 0.392189 -0.919885 118 383.074)" fill="#40A5DD"/>
<rect x="290.597" y="374.253" width="11" height="36" transform="rotate(156.909 290.597 374.253)" fill="#544B5F"/>
<circle cx="285.341" cy="375.95" r="13.5" transform="rotate(156.909 285.341 375.95)" fill="#40A5DD"/>
<path d="M100.484 125.891C102.062 125.891 103.492 126.125 104.773 126.594C106.055 127.062 107.141 127.703 108.031 128.516C108.938 129.328 109.633 130.281 110.117 131.375C110.602 132.453 110.844 133.602 110.844 134.82V149.07C110.844 150.289 110.602 151.445 110.117 152.539C109.633 153.617 108.938 154.562 108.031 155.375C107.141 156.188 106.055 156.828 104.773 157.297C103.492 157.766 102.062 158 100.484 158H93.2656C91.6875 158 90.2578 157.766 88.9766 157.297C87.6953 156.828 86.6016 156.188 85.6953 155.375C84.8047 154.562 84.1172 153.617 83.6328 152.539C83.1484 151.445 82.9062 150.289 82.9062 149.07V134.82C82.9062 133.602 83.1484 132.453 83.6328 131.375C84.1172 130.281 84.8047 129.328 85.6953 128.516C86.6016 127.703 87.6953 127.062 88.9766 126.594C90.2578 126.125 91.6875 125.891 93.2656 125.891H100.484ZM105.172 131.797L104.844 129.828L103.344 128.328L100.953 128H94.6719L92.2578 128.328L90.7812 129.828L90.5 131.797V143.609L90.7812 145.625L92.3047 147.102L94.6719 147.383H100.953L103.344 147.102L104.844 145.625L105.172 143.609V131.797ZM102.336 144.664L100.812 144.898H94.8125L93.2656 144.664L92.9375 143.258V132.031L93.1719 130.742L94.8125 130.484H100.812L102.453 130.742L102.688 132.125V143.352L102.336 144.664Z" fill="#544B5F"/>
<path d="M77.4844 226.891C79.0625 226.891 80.4922 227.125 81.7734 227.594C83.0547 228.062 84.1406 228.703 85.0312 229.516C85.9375 230.328 86.6328 231.281 87.1172 232.375C87.6016 233.453 87.8438 234.602 87.8438 235.82V250.07C87.8438 251.289 87.6016 252.445 87.1172 253.539C86.6328 254.617 85.9375 255.562 85.0312 256.375C84.1406 257.188 83.0547 257.828 81.7734 258.297C80.4922 258.766 79.0625 259 77.4844 259H70.2656C68.6875 259 67.2578 258.766 65.9766 258.297C64.6953 257.828 63.6016 257.188 62.6953 256.375C61.8047 255.562 61.1172 254.617 60.6328 253.539C60.1484 252.445 59.9062 251.289 59.9062 250.07V235.82C59.9062 234.602 60.1484 233.453 60.6328 232.375C61.1172 231.281 61.8047 230.328 62.6953 229.516C63.6016 228.703 64.6953 228.062 65.9766 227.594C67.2578 227.125 68.6875 226.891 70.2656 226.891H77.4844ZM82.1719 232.797L81.8438 230.828L80.3438 229.328L77.9531 229H71.6719L69.2578 229.328L67.7812 230.828L67.5 232.797V244.609L67.7812 246.625L69.3047 248.102L71.6719 248.383H77.9531L80.3438 248.102L81.8438 246.625L82.1719 244.609V232.797ZM79.3359 245.664L77.8125 245.898H71.8125L70.2656 245.664L69.9375 244.258V233.031L70.1719 231.742L71.8125 231.484H77.8125L79.4531 231.742L79.6875 233.125V244.352L79.3359 245.664Z" fill="#544B5F"/>
<path d="M100.484 263.891C102.062 263.891 103.492 264.125 104.773 264.594C106.055 265.062 107.141 265.703 108.031 266.516C108.938 267.328 109.633 268.281 110.117 269.375C110.602 270.453 110.844 271.602 110.844 272.82V287.07C110.844 288.289 110.602 289.445 110.117 290.539C109.633 291.617 108.938 292.562 108.031 293.375C107.141 294.188 106.055 294.828 104.773 295.297C103.492 295.766 102.062 296 100.484 296H93.2656C91.6875 296 90.2578 295.766 88.9766 295.297C87.6953 294.828 86.6016 294.188 85.6953 293.375C84.8047 292.562 84.1172 291.617 83.6328 290.539C83.1484 289.445 82.9062 288.289 82.9062 287.07V272.82C82.9062 271.602 83.1484 270.453 83.6328 269.375C84.1172 268.281 84.8047 267.328 85.6953 266.516C86.6016 265.703 87.6953 265.062 88.9766 264.594C90.2578 264.125 91.6875 263.891 93.2656 263.891H100.484ZM105.172 269.797L104.844 267.828L103.344 266.328L100.953 266H94.6719L92.2578 266.328L90.7812 267.828L90.5 269.797V281.609L90.7812 283.625L92.3047 285.102L94.6719 285.383H100.953L103.344 285.102L104.844 283.625L105.172 281.609V269.797ZM102.336 282.664L100.812 282.898H94.8125L93.2656 282.664L92.9375 281.258V270.031L93.1719 268.742L94.8125 268.484H100.812L102.453 268.742L102.688 270.125V281.352L102.336 282.664Z" fill="#544B5F"/>
<path d="M75.7969 160.953H73.6875L70.2656 162.148V164.656L73.2891 163.602V180.336H75.7969V160.953ZM77.4844 158.891C79.0625 158.891 80.4922 159.125 81.7734 159.594C83.0547 160.062 84.1406 160.703 85.0312 161.516C85.9375 162.328 86.6328 163.281 87.1172 164.375C87.6016 165.453 87.8438 166.602 87.8438 167.82V182.07C87.8438 183.289 87.6016 184.445 87.1172 185.539C86.6328 186.617 85.9375 187.562 85.0312 188.375C84.1406 189.188 83.0547 189.828 81.7734 190.297C80.4922 190.766 79.0625 191 77.4844 191H70.2656C68.6875 191 67.2578 190.766 65.9766 190.297C64.6953 189.828 63.6016 189.188 62.6953 188.375C61.8047 187.562 61.1172 186.617 60.6328 185.539C60.1484 184.445 59.9062 183.289 59.9062 182.07V167.82C59.9062 166.602 60.1484 165.453 60.6328 164.375C61.1172 163.281 61.8047 162.328 62.6953 161.516C63.6016 160.703 64.6953 160.062 65.9766 159.594C67.2578 159.125 68.6875 158.891 70.2656 158.891H77.4844Z" fill="#544B5F"/>
<path d="M98.7969 194.953H96.6875L93.2656 196.148V198.656L96.2891 197.602V214.336H98.7969V194.953ZM100.484 192.891C102.062 192.891 103.492 193.125 104.773 193.594C106.055 194.062 107.141 194.703 108.031 195.516C108.938 196.328 109.633 197.281 110.117 198.375C110.602 199.453 110.844 200.602 110.844 201.82V216.07C110.844 217.289 110.602 218.445 110.117 219.539C109.633 220.617 108.938 221.562 108.031 222.375C107.141 223.188 106.055 223.828 104.773 224.297C103.492 224.766 102.062 225 100.484 225H93.2656C91.6875 225 90.2578 224.766 88.9766 224.297C87.6953 223.828 86.6016 223.188 85.6953 222.375C84.8047 221.562 84.1172 220.617 83.6328 219.539C83.1484 218.445 82.9062 217.289 82.9062 216.07V201.82C82.9062 200.602 83.1484 199.453 83.6328 198.375C84.1172 197.281 84.8047 196.328 85.6953 195.516C86.6016 194.703 87.6953 194.062 88.9766 193.594C90.2578 193.125 91.6875 192.891 93.2656 192.891H100.484Z" fill="#544B5F"/>
<path d="M334.797 127.953H332.688L329.266 129.148V131.656L332.289 130.602V147.336H334.797V127.953ZM336.484 125.891C338.062 125.891 339.492 126.125 340.773 126.594C342.055 127.062 343.141 127.703 344.031 128.516C344.938 129.328 345.633 130.281 346.117 131.375C346.602 132.453 346.844 133.602 346.844 134.82V149.07C346.844 150.289 346.602 151.445 346.117 152.539C345.633 153.617 344.938 154.562 344.031 155.375C343.141 156.188 342.055 156.828 340.773 157.297C339.492 157.766 338.062 158 336.484 158H329.266C327.688 158 326.258 157.766 324.977 157.297C323.695 156.828 322.602 156.188 321.695 155.375C320.805 154.562 320.117 153.617 319.633 152.539C319.148 151.445 318.906 150.289 318.906 149.07V134.82C318.906 133.602 319.148 132.453 319.633 131.375C320.117 130.281 320.805 129.328 321.695 128.516C322.602 127.703 323.695 127.062 324.977 126.594C326.258 126.125 327.688 125.891 329.266 125.891H336.484Z" fill="#544B5F"/>
<path d="M356.797 229.953H354.688L351.266 231.148V233.656L354.289 232.602V249.336H356.797V229.953ZM358.484 227.891C360.062 227.891 361.492 228.125 362.773 228.594C364.055 229.062 365.141 229.703 366.031 230.516C366.938 231.328 367.633 232.281 368.117 233.375C368.602 234.453 368.844 235.602 368.844 236.82V251.07C368.844 252.289 368.602 253.445 368.117 254.539C367.633 255.617 366.938 256.562 366.031 257.375C365.141 258.188 364.055 258.828 362.773 259.297C361.492 259.766 360.062 260 358.484 260H351.266C349.688 260 348.258 259.766 346.977 259.297C345.695 258.828 344.602 258.188 343.695 257.375C342.805 256.562 342.117 255.617 341.633 254.539C341.148 253.445 340.906 252.289 340.906 251.07V236.82C340.906 235.602 341.148 234.453 341.633 233.375C342.117 232.281 342.805 231.328 343.695 230.516C344.602 229.703 345.695 229.062 346.977 228.594C348.258 228.125 349.688 227.891 351.266 227.891H358.484Z" fill="#544B5F"/>
<path d="M336.484 263.891C338.062 263.891 339.492 264.125 340.773 264.594C342.055 265.062 343.141 265.703 344.031 266.516C344.938 267.328 345.633 268.281 346.117 269.375C346.602 270.453 346.844 271.602 346.844 272.82V287.07C346.844 288.289 346.602 289.445 346.117 290.539C345.633 291.617 344.938 292.562 344.031 293.375C343.141 294.188 342.055 294.828 340.773 295.297C339.492 295.766 338.062 296 336.484 296H329.266C327.688 296 326.258 295.766 324.977 295.297C323.695 294.828 322.602 294.188 321.695 293.375C320.805 292.562 320.117 291.617 319.633 290.539C319.148 289.445 318.906 288.289 318.906 287.07V272.82C318.906 271.602 319.148 270.453 319.633 269.375C320.117 268.281 320.805 267.328 321.695 266.516C322.602 265.703 323.695 265.062 324.977 264.594C326.258 264.125 327.688 263.891 329.266 263.891H336.484ZM341.172 269.797L340.844 267.828L339.344 266.328L336.953 266H330.672L328.258 266.328L326.781 267.828L326.5 269.797V281.609L326.781 283.625L328.305 285.102L330.672 285.383H336.953L339.344 285.102L340.844 283.625L341.172 281.609V269.797ZM338.336 282.664L336.812 282.898H330.812L329.266 282.664L328.938 281.258V270.031L329.172 268.742L330.812 268.484H336.812L338.453 268.742L338.688 270.125V281.352L338.336 282.664Z" fill="#544B5F"/>
<path d="M358.484 158.891C360.062 158.891 361.492 159.125 362.773 159.594C364.055 160.062 365.141 160.703 366.031 161.516C366.938 162.328 367.633 163.281 368.117 164.375C368.602 165.453 368.844 166.602 368.844 167.82V182.07C368.844 183.289 368.602 184.445 368.117 185.539C367.633 186.617 366.938 187.562 366.031 188.375C365.141 189.188 364.055 189.828 362.773 190.297C361.492 190.766 360.062 191 358.484 191H351.266C349.688 191 348.258 190.766 346.977 190.297C345.695 189.828 344.602 189.188 343.695 188.375C342.805 187.562 342.117 186.617 341.633 185.539C341.148 184.445 340.906 183.289 340.906 182.07V167.82C340.906 166.602 341.148 165.453 341.633 164.375C342.117 163.281 342.805 162.328 343.695 161.516C344.602 160.703 345.695 160.062 346.977 159.594C348.258 159.125 349.688 158.891 351.266 158.891H358.484ZM363.172 164.797L362.844 162.828L361.344 161.328L358.953 161H352.672L350.258 161.328L348.781 162.828L348.5 164.797V176.609L348.781 178.625L350.305 180.102L352.672 180.383H358.953L361.344 180.102L362.844 178.625L363.172 176.609V164.797ZM360.336 177.664L358.812 177.898H352.812L351.266 177.664L350.938 176.258V165.031L351.172 163.742L352.812 163.484H358.812L360.453 163.742L360.688 165.125V176.352L360.336 177.664Z" fill="#544B5F"/>
<path d="M334.797 194.953H332.688L329.266 196.148V198.656L332.289 197.602V214.336H334.797V194.953ZM336.484 192.891C338.062 192.891 339.492 193.125 340.773 193.594C342.055 194.062 343.141 194.703 344.031 195.516C344.938 196.328 345.633 197.281 346.117 198.375C346.602 199.453 346.844 200.602 346.844 201.82V216.07C346.844 217.289 346.602 218.445 346.117 219.539C345.633 220.617 344.938 221.562 344.031 222.375C343.141 223.188 342.055 223.828 340.773 224.297C339.492 224.766 338.062 225 336.484 225H329.266C327.688 225 326.258 224.766 324.977 224.297C323.695 223.828 322.602 223.188 321.695 222.375C320.805 221.562 320.117 220.617 319.633 219.539C319.148 218.445 318.906 217.289 318.906 216.07V201.82C318.906 200.602 319.148 199.453 319.633 198.375C320.117 197.281 320.805 196.328 321.695 195.516C322.602 194.703 323.695 194.062 324.977 193.594C326.258 193.125 327.688 192.891 329.266 192.891H336.484Z" fill="#544B5F"/>
</g>
<defs>
<clipPath id="clip0_0_1">
<rect width="425" height="425" fill="white"/>
</clipPath>
</defs>
</svg>
